<?xml version="1.0" encoding="UTF-8"?>
<svg width="45px" height="28px" viewBox="0 0 45 28" version="1.1" xmlns="http://www.w3.org/2000/svg" xmlns:xlink="http://www.w3.org/1999/xlink">
    <title>ELDAD® 2</title>
    <g id="Website" stroke="none" stroke-width="1" fill="none" fill-rule="evenodd">
        <g id="Index" transform="translate(-40.000000, -40.000000)" fill="#000000" fill-rule="nonzero">
            <g id="ELDAD®-2" transform="translate(40.000000, 40.184000)">
                <path d="M8.838,12.816 L8.838,11.448 L1.512,11.448 L1.512,6.822 L8.19,6.822 L8.19,5.454 L1.512,5.454 L1.512,1.368 L8.91,1.368 L8.91,1.59872116e-14 L5.04485342e-13,1.59872116e-14 L5.04485342e-13,12.816 L8.838,12.816 Z M34.486,12.816 L34.486,11.448 L12.042,11.448 L12.042,1.59872116e-14 L10.53,1.59872116e-14 L10.53,12.816 L34.486,12.816 Z M4.32,27.816 C6.25199991,27.816 7.78800009,27.2459999 8.928,26.106 C10.044,24.9660001 10.602,23.4000001 10.602,21.408 C10.602,19.392 10.044,17.8200001 8.928,16.692 C7.79999991,15.5639999 6.264,15 4.32,15 L5.04485342e-13,15 L5.04485342e-13,27.816 L4.32,27.816 Z M4.32,26.448 L1.512,26.448 L1.512,16.368 L4.32,16.368 C5.832,16.368 6.993,16.8120001 7.803,17.7 C8.613,18.5879999 9.018,19.824 9.018,21.408 C9.018,22.992 8.613,24.2280001 7.803,25.116 C6.993,26.0039999 5.832,26.448 4.32,26.448 Z M13.086,27.816 L14.562,24.09 L20.394,24.09 L21.888,27.816 L23.49,27.816 L18.306,15 L16.614,15 L11.502,27.816 L13.086,27.816 Z M19.854,22.722 L15.102,22.722 L15.156,22.578 C15.8279999,20.8980001 16.5900001,18.9180001 17.442,16.638 C18.702,19.8540001 19.4819999,21.8279999 19.782,22.56 L19.854,22.722 Z M29.25,27.816 C31.1819999,27.816 32.7180001,27.2459999 33.858,26.106 C34.974,24.9660001 35.532,23.4000001 35.532,21.408 C35.532,19.392 34.974,17.8200001 33.858,16.692 C32.7299999,15.5639999 31.194,15 29.25,15 L24.93,15 L24.93,27.816 L29.25,27.816 Z M29.25,26.448 L26.442,26.448 L26.442,16.368 L29.25,16.368 C30.762,16.368 31.923,16.8120001 32.733,17.7 C33.543,18.5879999 33.948,19.824 33.948,21.408 C33.948,22.992 33.543,24.2280001 32.733,25.116 C31.923,26.0039999 30.762,26.448 29.25,26.448 Z M40.788,22.74 C43.02,22.74 44.784,21.012 44.784,18.762 C44.784,16.548 43.056,14.784 40.788,14.784 C38.556,14.784 36.792,16.566 36.792,18.78 C36.792,21.03 38.574,22.74 40.788,22.74 Z M40.788,22.092 C38.952,22.092 37.512,20.76 37.512,18.78 C37.512,16.818 38.88,15.432 40.788,15.432 C42.696,15.432 44.064,16.8 44.064,18.762 C44.064,20.724 42.642,22.092 40.788,22.092 Z M40.284,20.688 L40.284,19.158 L40.698,19.158 L41.652,20.688 L42.552,20.688 L41.508,19.014 C41.976,18.87 42.318,18.546 42.318,17.952 L42.318,17.934 C42.318,17.124 41.724,16.746 40.806,16.746 L39.42,16.746 L39.42,20.688 L40.284,20.688 Z M40.788,18.564 L40.284,18.564 L40.284,17.412 L40.788,17.412 C41.22,17.412 41.472,17.556 41.472,17.97 L41.472,17.988 C41.472,18.366 41.238,18.564 40.788,18.564 Z" id="ELDAD®"></path>
            </g>
        </g>
    </g>
</svg>